<svg version="1" xmlns="http://www.w3.org/2000/svg" width="682.667" height="682.667" viewBox="0 0 512.000000 512.000000"><path d="M214 2.4c-14.7 1.5-14.5 1.4-37 5.7-48.4 9.3-96.4 29.5-140.8 59.1C23.6 75.7 1.6 91.8 1.2 93c-.2.5 54.8 89.2 122.1 197.2 67.3 108 125.4 202.1 129.2 209.2l6.8 12.8 7.7-14.8c4.2-8.2 61-102.9 126.2-210.3L511.8 91.6l-11.7-8c-25.9-17.9-66.2-39.5-94.1-50.5-39-15.4-79.8-26-115-29.7-20-2.1-60.1-2.6-77-1zm66.1 88.5c37.3 5 70.7 16.1 105.4 34.8 18.9 10.3 45.6 28.4 60.5 41.1 2.9 2.4 3.3 3.3 2.5 5-1.8 3.7-189 312.1-189.5 312.1-.3 0-44.4-70.5-98.1-156.7L63.3 170.5l6.6-6.1C113 124.7 165 98.5 214.5 91.6c15.8-2.2 16.3-2.3 34.6-2.4 11.7-.2 21 .4 31 1.7z"/><path d="M171.3 123.5c-19.5 4.2-36.8 20.8-41.8 40-1.9 7.6-1.9 21.4 0 29 7 26.7 34 44.6 61.6 40.7 22.4-3.2 40.9-20 46.5-42.2 2.2-8.6 1.5-23.2-1.5-31.5-9.3-26.2-37.6-41.9-64.8-36zM328.3 159c-31.7 11.3-37.3 53.1-9.7 72.1 12.5 8.6 29.8 9.2 42.8 1.5 5.5-3.3 12.9-11.1 15.9-16.8 5.4-10.2 5.6-25 .4-35.8-2.6-5.5-10.8-14.4-16.3-17.6-9.5-5.6-23.1-7-33.1-3.4zM234 276.7c-23.7 8.3-34.6 34.8-23.5 57.3 2.8 5.5 11.6 14.5 17 17.3 16.2 8.2 34.3 5.5 47.3-7.3 8.8-8.7 12.8-19 12-31.3-1.1-16.3-12.3-30.7-28.2-36-6.2-2.1-18.5-2.1-24.6 0z"/></svg>